<svg width="875" height="837" viewBox="0 0 875 837" fill="none" xmlns="http://www.w3.org/2000/svg">
<path fill-rule="evenodd" clip-rule="evenodd" d="M484.815 17.5525C561.715 23.1319 650.88 2.55197 709.447 52.6977C768.583 103.331 750.439 199.209 780.735 270.922C806.41 331.699 868.81 375.985 873.816 441.772C878.906 508.669 845.145 572.499 807.93 628.322C772.12 682.037 719.917 719.969 665.351 754.469C608.965 790.119 551.07 824.823 484.815 832.612C414.297 840.903 337.726 838.386 277.985 800.012C218.877 762.044 207.181 682.482 164.374 626.778C113.603 560.712 17.3735 523.788 2.68333 441.772C-11.9058 360.319 49.9049 286.219 90.4561 214.088C131.403 141.253 165.758 55.9467 240.542 18.6772C314.681 -18.2717 402.196 11.5582 484.815 17.5525Z" stroke="#C7CBD6"></path>
<path fill-rule="evenodd" clip-rule="evenodd" d="M480.673 49.4668C551.42 54.6012 633.452 35.6627 687.333 81.8089C741.738 128.403 725.045 216.634 752.917 282.628C776.539 338.557 833.946 379.31 838.551 439.85C843.234 501.412 812.175 560.151 777.937 611.522C744.992 660.952 696.965 695.859 646.765 727.607C594.89 760.413 541.627 792.349 480.673 799.518C415.796 807.147 345.352 804.831 290.39 769.517C236.011 734.578 225.251 661.361 185.869 610.101C139.16 549.304 50.629 515.325 37.1141 439.85C23.6922 364.895 80.5577 296.705 117.865 230.327C155.535 163.301 187.142 84.7987 255.942 50.5018C324.151 16.4999 404.663 43.9506 480.673 49.4668Z" stroke="#C7CBD6"></path>
<path fill-rule="evenodd" clip-rule="evenodd" d="M476.197 77.1473C539.682 81.7575 613.293 64.7522 661.643 106.188C710.464 148.026 695.484 227.251 720.495 286.508C741.692 336.728 793.206 373.322 797.339 427.682C801.541 482.96 773.67 535.703 742.947 581.83C713.383 626.215 670.287 657.558 625.239 686.065C578.689 715.523 530.893 744.199 476.197 750.636C417.979 757.487 354.766 755.407 305.446 723.698C256.649 692.325 246.994 626.582 211.654 580.554C169.739 525.963 90.2963 495.453 78.1687 427.682C66.1245 360.378 117.153 299.148 150.63 239.546C184.434 179.362 212.797 108.873 274.534 78.0765C335.741 47.5455 407.989 72.1941 476.197 77.1473Z" stroke="#C7CBD6"></path>
<path fill-rule="evenodd" clip-rule="evenodd" d="M483.523 105.234C541.621 109.453 608.984 93.8897 653.231 131.813C697.908 170.104 684.2 242.612 707.088 296.846C726.486 342.808 773.628 376.299 777.41 426.051C781.256 476.642 755.75 524.914 727.634 567.13C700.58 607.752 661.141 636.438 619.917 662.529C577.318 689.489 533.578 715.734 483.523 721.625C430.247 727.895 372.399 725.992 327.265 696.971C282.609 668.258 273.773 608.089 241.433 565.963C203.076 516 130.375 488.076 119.276 426.051C108.254 364.452 154.952 308.414 185.588 253.865C216.523 198.783 242.478 134.27 298.976 106.084C354.989 78.1417 421.105 100.701 483.523 105.234Z" stroke="#C7CBD6"></path>
<path fill-rule="evenodd" clip-rule="evenodd" d="M495.901 142.285C547.087 145.998 606.438 132.302 645.422 165.674C684.784 199.371 672.706 263.178 692.872 310.903C709.963 351.35 751.497 380.822 754.829 424.604C758.218 469.124 735.746 511.603 710.974 548.754C687.138 584.501 652.39 609.745 616.07 632.705C578.538 656.43 540.001 679.525 495.901 684.709C448.962 690.227 397.995 688.552 358.23 663.014C318.886 637.746 311.101 584.797 282.607 547.726C248.813 503.759 184.76 479.186 174.982 424.604C165.271 370.397 206.413 321.084 233.405 273.08C260.661 224.608 283.528 167.836 333.306 143.033C382.655 118.444 440.907 138.296 495.901 142.285Z" stroke="#C7CBD6"></path>
<path fill-rule="evenodd" clip-rule="evenodd" d="M470.672 200.416C507.92 203.116 551.108 193.155 579.476 217.426C608.12 241.932 599.331 288.337 614.006 323.047C626.442 352.463 656.666 373.897 659.091 405.738C661.557 438.117 645.204 469.011 627.178 496.029C609.833 522.027 584.548 540.386 558.118 557.084C530.806 574.339 502.763 591.136 470.672 594.906C436.515 598.919 399.427 597.701 370.49 579.127C341.86 560.751 336.195 522.243 315.46 495.282C290.869 463.306 244.258 445.434 237.142 405.738C230.076 366.315 260.015 330.451 279.657 295.539C299.49 260.287 316.131 218.998 352.353 200.96C388.264 183.077 430.654 197.514 470.672 200.416Z" stroke="#C7CBD6"></path>
<path fill-rule="evenodd" clip-rule="evenodd" d="M491.264 175.479C536.008 178.73 587.889 166.738 621.966 195.959C656.375 225.463 645.817 281.332 663.445 323.121C678.385 358.536 714.692 384.342 717.604 422.677C720.566 461.659 700.923 498.854 679.269 531.382C658.433 562.683 628.058 584.786 596.309 604.89C563.501 625.663 529.814 645.886 491.264 650.425C450.233 655.256 405.68 653.789 370.92 631.428C336.528 609.304 329.723 562.942 304.815 530.483C275.274 491.985 219.283 470.469 210.735 422.677C202.247 375.214 238.211 332.035 261.806 290.003C285.631 247.561 305.621 197.852 349.133 176.135C392.272 154.604 443.192 171.986 491.264 175.479Z" stroke="#C7CBD6"></path>
<path fill-rule="evenodd" clip-rule="evenodd" d="M482.905 237.44C513.008 239.625 547.912 231.564 570.838 251.204C593.987 271.035 565.623 318.469 577.483 346.557C587.534 370.36 633.221 377.823 635.181 403.589C637.173 429.79 623.958 454.79 609.39 476.653C595.372 497.691 574.937 512.548 553.576 526.06C531.504 540.022 508.84 553.614 482.905 556.665C455.3 559.913 425.326 558.927 401.94 543.897C378.802 529.027 388.603 474.852 371.846 453.035C351.971 427.16 299.923 435.711 294.172 403.589C288.461 371.687 312.657 342.665 328.531 314.415C344.56 285.888 358.009 252.477 387.283 237.88C416.305 223.409 450.563 235.092 482.905 237.44Z" stroke="#C7CBD6"></path>
<path fill-rule="evenodd" clip-rule="evenodd" d="M480.146 255.286C506.851 257.214 537.817 250.103 558.156 267.428C578.693 284.921 553.53 326.763 564.051 351.54C572.968 372.537 613.5 379.12 615.239 401.849C617.006 424.961 605.282 447.013 592.358 466.3C579.922 484.857 561.792 497.963 542.842 509.882C523.261 522.198 503.154 534.188 480.146 536.879C455.656 539.744 429.064 538.874 408.317 525.616C387.79 512.499 396.484 464.711 381.618 445.466C363.986 422.641 317.811 430.184 312.709 401.849C307.643 373.708 329.109 348.107 343.191 323.187C357.411 298.023 369.343 268.551 395.313 255.675C421.061 242.909 451.453 253.215 480.146 255.286Z" stroke="#C7CBD6"></path>
<path fill-rule="evenodd" clip-rule="evenodd" d="M475.38 290.843C494.355 292.211 516.357 287.165 530.808 299.46C545.4 311.875 527.521 341.569 534.997 359.152C541.332 374.054 570.132 378.725 571.367 394.855C572.623 411.258 564.292 426.908 555.109 440.595C546.273 453.765 533.392 463.065 519.927 471.524C506.014 480.265 491.728 488.774 475.38 490.684C457.979 492.717 439.085 492.099 424.344 482.691C409.758 473.381 415.936 439.467 405.373 425.81C392.845 409.611 360.037 414.965 356.412 394.855C352.812 374.884 368.064 356.716 378.07 339.031C388.174 321.173 396.651 300.257 415.104 291.119C433.398 282.06 454.993 289.373 475.38 290.843Z" stroke="#C7CBD6"></path>
<path fill-rule="evenodd" clip-rule="evenodd" d="M470.903 323.847C482.616 324.691 496.198 321.578 505.118 329.163C514.126 336.821 503.089 355.139 507.704 365.985C511.615 375.178 529.392 378.06 530.155 388.01C530.93 398.128 525.788 407.783 520.119 416.226C514.665 424.35 506.713 430.088 498.402 435.306C489.813 440.698 480.995 445.947 470.903 447.125C460.162 448.379 448.499 447.998 439.4 442.194C430.396 436.452 434.21 415.531 427.689 407.105C419.956 397.113 399.704 400.415 397.466 388.01C395.244 375.69 404.659 364.483 410.836 353.573C417.073 342.557 422.305 329.654 433.696 324.017C444.989 318.428 458.319 322.94 470.903 323.847Z" stroke="#C7CBD6"></path>
</svg>