<svg width="414" height="404" viewBox="0 0 414 404" fill="none" xmlns="http://www.w3.org/2000/svg">
<rect width="414" height="403.088" rx="29" fill="#4F46E5"/>
<path d="M284.528 129.886C275.256 113.761 263.788 98.2776 250.615 84.0746C246.859 80.0253 240.512 80.038 236.607 83.9432L215.374 105.177L249.052 223.113C250.638 228.667 249.196 234.553 245.137 238.137C241.553 242.197 235.394 243.912 229.84 242.326L111.903 208.647L90.9431 229.607C87.0378 233.512 87.0251 239.859 91.0744 243.615C105.277 256.788 120.761 268.257 136.886 277.528C155.781 288.391 175.186 296.025 193.994 299.994C212.801 303.962 230.643 304.187 246.501 300.656C262.358 297.125 275.921 289.907 286.414 279.414C296.907 268.921 304.125 255.358 307.656 239.501C311.187 223.643 310.962 205.801 306.994 186.994C303.025 168.186 295.391 148.781 284.528 129.886Z" fill="white"/>
<path d="M191.914 128.636L163.775 156.775L135.363 185.187L214.518 207.791L191.914 128.636Z" fill="white"/>
</svg>
