<svg width="414" height="414" viewBox="0 0 414 414" fill="none" xmlns="http://www.w3.org/2000/svg">
<rect width="414" height="414" rx="30" fill="#4F46E5"/>
<path d="M285.35 137.708C276.079 121.583 264.61 106.1 251.437 91.8967C247.681 87.8474 241.335 87.8601 237.429 91.7654L220.356 108.839C217.788 111.406 216.814 115.164 217.811 118.656L249.875 230.935C251.461 236.489 250.019 242.375 245.959 245.959C242.375 250.019 236.216 251.734 230.662 250.148L118.382 218.085C114.891 217.088 111.133 218.062 108.565 220.629L91.7654 237.429C87.8601 241.335 87.8474 247.681 91.8967 251.437C106.1 264.61 121.583 276.079 137.708 285.35C156.603 296.214 176.008 303.847 194.816 307.816C213.624 311.784 231.466 312.009 247.323 308.478C263.18 304.947 276.743 297.729 287.236 287.236C297.729 276.743 304.947 263.18 308.478 247.323C312.009 231.466 311.784 213.624 307.816 194.816C303.848 176.008 296.214 156.603 285.35 137.708Z" fill="white"/>
<path d="M209.499 201.188C210.695 205.649 206.612 209.732 202.151 208.536L147.777 193.967C143.316 192.772 141.822 187.195 145.088 183.929L184.892 144.125C188.158 140.859 193.735 142.353 194.93 146.814L209.499 201.188Z" fill="white"/>
</svg>
