<svg width="446" height="116" viewBox="0 0 446 116" fill="none" xmlns="http://www.w3.org/2000/svg">
<path d="M16.95 46.95L12.9 94.65C17.4 90.35 22.05 85.4 26.85 79.8C31.65 74.1 36.15 67.85 40.35 61.05C44.65 54.25 48.25 46.95 51.15 39.15C51.55 38.05 52.35 37.7 53.55 38.1C54.85 38.4 56.2 39.15 57.6 40.35C59.1 41.45 60.25 42.7 61.05 44.1C61.95 45.4 62.25 46.55 61.95 47.55C59.15 55.25 55.65 62.5 51.45 69.3C47.25 76.1 42.75 82.35 37.95 88.05C33.25 93.65 28.6 98.65 24 103.05C19.5 107.45 15.45 111.1 11.85 114C11.35 114.5 10.6 114.6 9.60001 114.3C8.50001 114.4 7.20001 113.9 5.70001 112.8C4.20001 111.8 2.85001 110.6 1.65001 109.2C0.550007 107.8 0.0500062 106.55 0.150006 105.45L5.70001 39.75C5.90001 38.45 6.55001 37.9 7.65001 38.1C8.85001 38.2 10.15 38.8 11.55 39.9C13.05 40.9 14.35 42.05 15.45 43.35C16.55 44.65 17.05 45.85 16.95 46.95ZM106.379 102.9C101.679 106.8 97.1793 109.8 92.8793 111.9C88.5793 114 84.2293 115.05 79.8293 115.05C74.5293 115.05 70.2293 114.1 66.9293 112.2C63.7293 110.3 61.3293 107.8 59.7293 104.7C58.2293 101.5 57.3293 98 57.0293 94.2C56.7293 90.4 56.9293 86.6 57.6293 82.8C58.3293 78.9 59.3293 75.3 60.6293 72C63.3293 65 66.9793 58.95 71.5793 53.85C76.2793 48.65 81.2793 44.6 86.5793 41.7C91.9793 38.8 96.9793 37.35 101.579 37.35C104.379 37.35 107.229 37.9 110.129 39C113.029 40 115.529 41.55 117.629 43.65C119.829 45.65 121.279 48.2 121.979 51.3C122.779 54.3 122.379 57.85 120.779 61.95C118.279 68.65 113.429 74.75 106.229 80.25C99.0293 85.65 88.7793 89.5 75.4793 91.8C74.5793 92 73.4293 91.7 72.0293 90.9C70.7293 90.1 69.5793 89.15 68.5793 88.05C67.2793 92.25 66.6293 95.5 66.6293 97.8C66.6293 100.1 66.9793 101.75 67.6793 102.75C68.4793 103.65 69.3293 104.2 70.2293 104.4C71.2293 104.5 72.0293 104.55 72.6293 104.55C75.8293 104.55 79.5293 103.6 83.7293 101.7C87.9293 99.7 92.2293 96.9 96.6293 93.3C97.4293 92.6 98.4793 92.6 99.7793 93.3C101.179 93.9 102.529 94.85 103.829 96.15C105.129 97.45 106.079 98.75 106.679 100.05C107.279 101.35 107.179 102.3 106.379 102.9ZM71.1293 80.4L70.9793 80.85C79.1793 79.15 86.4293 76.7 92.7293 73.5C99.1293 70.2 104.279 66.8 108.179 63.3C112.179 59.7 114.729 56.55 115.829 53.85C116.029 53.45 116.079 52.8 115.979 51.9C115.979 50.9 115.479 50 114.479 49.2C113.479 48.3 111.579 47.85 108.779 47.85C105.379 47.85 101.779 48.75 97.9793 50.55C94.2793 52.35 90.6793 54.8 87.1793 57.9C83.7793 60.9 80.6793 64.35 77.8793 68.25C75.0793 72.15 72.8293 76.2 71.1293 80.4ZM170.539 102.9C165.839 106.8 161.339 109.8 157.039 111.9C152.739 114 148.389 115.05 143.989 115.05C138.689 115.05 134.389 114.1 131.089 112.2C127.889 110.3 125.489 107.8 123.889 104.7C122.389 101.5 121.489 98 121.189 94.2C120.889 90.4 121.089 86.6 121.789 82.8C122.489 78.9 123.489 75.3 124.789 72C127.489 65 131.139 58.95 135.739 53.85C140.439 48.65 145.439 44.6 150.739 41.7C156.139 38.8 161.139 37.35 165.739 37.35C168.539 37.35 171.389 37.9 174.289 39C177.189 40 179.689 41.55 181.789 43.65C183.989 45.65 185.439 48.2 186.139 51.3C186.939 54.3 186.539 57.85 184.939 61.95C182.439 68.65 177.589 74.75 170.389 80.25C163.189 85.65 152.939 89.5 139.639 91.8C138.739 92 137.589 91.7 136.189 90.9C134.889 90.1 133.739 89.15 132.739 88.05C131.439 92.25 130.789 95.5 130.789 97.8C130.789 100.1 131.139 101.75 131.839 102.75C132.639 103.65 133.489 104.2 134.389 104.4C135.389 104.5 136.189 104.55 136.789 104.55C139.989 104.55 143.689 103.6 147.889 101.7C152.089 99.7 156.389 96.9 160.789 93.3C161.589 92.6 162.639 92.6 163.939 93.3C165.339 93.9 166.689 94.85 167.989 96.15C169.289 97.45 170.239 98.75 170.839 100.05C171.439 101.35 171.339 102.3 170.539 102.9ZM135.289 80.4L135.139 80.85C143.339 79.15 150.589 76.7 156.889 73.5C163.289 70.2 168.439 66.8 172.339 63.3C176.339 59.7 178.889 56.55 179.989 53.85C180.189 53.45 180.239 52.8 180.139 51.9C180.139 50.9 179.639 50 178.639 49.2C177.639 48.3 175.739 47.85 172.939 47.85C169.539 47.85 165.939 48.75 162.139 50.55C158.439 52.35 154.839 54.8 151.339 57.9C147.939 60.9 144.839 64.35 142.039 68.25C139.239 72.15 136.989 76.2 135.289 80.4ZM238 47.1C233.6 47.1 229.35 48.25 225.25 50.55C221.25 52.85 217.55 55.85 214.15 59.55C210.75 63.25 207.75 67.2 205.15 71.4C202.65 75.5 200.7 79.45 199.3 83.25C197.4 88.55 197 92.7 198.1 95.7C199.3 98.7 201.45 100.2 204.55 100.2C207.35 100.2 210.7 98.85 214.6 96.15C218.5 93.35 222.55 89.05 226.75 83.25C230.95 77.35 234.9 69.7 238.6 60.3L259.9 1.65005C260.2 0.950043 260.8 0.600041 261.7 0.600041C262.9 0.600041 264.25 1.20004 265.75 2.40005C267.35 3.50004 268.65 4.80004 269.65 6.30004C270.75 7.70005 271.1 8.95005 270.7 10.05L243.55 84.75C241.65 89.85 240.6 94.75 240.4 99.45C240.3 104.05 240.85 107.9 242.05 111C242.45 112 242.5 112.8 242.2 113.4C242.1 114 241.6 114.3 240.7 114.3C239.4 114.3 237.75 113.55 235.75 112.05C233.75 110.65 232.35 109 231.55 107.1C229.55 101.3 228.95 95.2 229.75 88.8C223.85 97.8 217.95 104.45 212.05 108.75C206.25 113.05 201.1 115.2 196.6 115.2C192.7 115.2 189.6 113.65 187.3 110.55C185 107.45 183.85 102.9 183.85 96.9C183.95 90.9 185.55 83.55 188.65 74.85C190.35 70.35 192.65 65.85 195.55 61.35C198.55 56.85 201.95 52.75 205.75 49.05C209.55 45.25 213.6 42.25 217.9 40.05C222.2 37.75 226.5 36.6 230.8 36.6C232.3 36.6 233.8 37.2 235.3 38.4C236.8 39.6 238 40.95 238.9 42.45C239.9 43.95 240.25 45.15 239.95 46.05C239.65 46.75 239 47.1 238 47.1ZM304.28 102.9C299.58 106.8 295.08 109.8 290.78 111.9C286.48 114 282.13 115.05 277.73 115.05C272.43 115.05 268.13 114.1 264.83 112.2C261.63 110.3 259.23 107.8 257.63 104.7C256.13 101.5 255.23 98 254.93 94.2C254.63 90.4 254.83 86.6 255.53 82.8C256.23 78.9 257.23 75.3 258.53 72C261.23 65 264.88 58.95 269.48 53.85C274.18 48.65 279.18 44.6 284.48 41.7C289.88 38.8 294.88 37.35 299.48 37.35C302.28 37.35 305.13 37.9 308.03 39C310.93 40 313.43 41.55 315.53 43.65C317.73 45.65 319.18 48.2 319.88 51.3C320.68 54.3 320.28 57.85 318.68 61.95C316.18 68.65 311.33 74.75 304.13 80.25C296.93 85.65 286.68 89.5 273.38 91.8C272.48 92 271.33 91.7 269.93 90.9C268.63 90.1 267.48 89.15 266.48 88.05C265.18 92.25 264.53 95.5 264.53 97.8C264.53 100.1 264.88 101.75 265.58 102.75C266.38 103.65 267.23 104.2 268.13 104.4C269.13 104.5 269.93 104.55 270.53 104.55C273.73 104.55 277.43 103.6 281.63 101.7C285.83 99.7 290.13 96.9 294.53 93.3C295.33 92.6 296.38 92.6 297.68 93.3C299.08 93.9 300.43 94.85 301.73 96.15C303.03 97.45 303.98 98.75 304.58 100.05C305.18 101.35 305.08 102.3 304.28 102.9ZM269.03 80.4L268.88 80.85C277.08 79.15 284.33 76.7 290.63 73.5C297.03 70.2 302.18 66.8 306.08 63.3C310.08 59.7 312.63 56.55 313.73 53.85C313.93 53.45 313.98 52.8 313.88 51.9C313.88 50.9 313.38 50 312.38 49.2C311.38 48.3 309.48 47.85 306.68 47.85C303.28 47.85 299.68 48.75 295.88 50.55C292.18 52.35 288.58 54.8 285.08 57.9C281.68 60.9 278.58 64.35 275.78 68.25C272.98 72.15 270.73 76.2 269.03 80.4ZM370.69 94.2C368.69 97.6 366.04 100.9 362.74 104.1C359.54 107.3 355.79 109.9 351.49 111.9C347.29 114 342.59 115.05 337.39 115.05C331.99 115.05 327.79 113.9 324.79 111.6C321.89 109.4 319.94 106.45 318.94 102.75C317.94 99.05 317.69 95.05 318.19 90.75C318.79 86.45 319.84 82.2 321.34 78C322.84 74 324.94 69.75 327.64 65.25C330.44 60.65 333.84 56.35 337.84 52.35C341.94 48.25 346.69 44.95 352.09 42.45C357.59 39.85 363.74 38.55 370.54 38.55C376.34 38.55 380.29 40.7 382.39 45C384.59 49.3 384.54 54.5 382.24 60.6C381.94 61.6 380.89 62.75 379.09 64.05C377.39 65.25 375.54 66.35 373.54 67.35C371.54 68.25 369.84 68.85 368.44 69.15C367.14 69.35 366.69 68.9 367.09 67.8C369.09 62.2 369.09 57.55 367.09 53.85C365.09 50.05 361.89 48.15 357.49 48.15C356.69 48.15 355.54 48.35 354.04 48.75C352.64 49.05 350.94 50 348.94 51.6C347.04 53.1 344.94 55.7 342.64 59.4C340.44 63.1 338.09 68.3 335.59 75C332.99 82.2 331.84 88.1 332.14 92.7C332.54 97.3 333.59 100.75 335.29 103.05C337.09 105.25 338.84 106.35 340.54 106.35C341.74 106.35 343.09 106.2 344.59 105.9C346.19 105.6 347.89 104.8 349.69 103.5C351.59 102.1 353.44 99.9 355.24 96.9C355.74 96 356.89 95.2 358.69 94.5C360.59 93.7 362.59 93.1 364.69 92.7C366.79 92.3 368.44 92.2 369.64 92.4C370.94 92.6 371.29 93.2 370.69 94.2ZM445.242 47.7C442.842 52.6 439.342 57.6 434.742 62.7C430.242 67.7 424.242 71.85 416.742 75.15L423.492 111.9C423.792 113.4 423.442 114.2 422.442 114.3C421.442 114.5 420.242 114.2 418.842 113.4C417.442 112.6 416.092 111.55 414.792 110.25C413.592 108.95 412.892 107.6 412.692 106.2L407.592 78.3C405.792 78.8 403.892 79.2 401.892 79.5C401.092 79.6 400.092 79.35 398.892 78.75L386.292 113.25C385.892 114.35 385.042 114.7 383.742 114.3C382.542 114 381.242 113.25 379.842 112.05C378.342 110.95 377.192 109.75 376.392 108.45C375.492 107.05 375.192 105.85 375.492 104.85L412.992 1.65005C413.392 0.550042 414.192 0.200041 415.392 0.600041C416.692 0.900043 418.042 1.65005 419.442 2.85005C420.942 3.95005 422.092 5.20004 422.892 6.60004C423.792 7.90005 424.092 9.05005 423.792 10.05L403.092 66.75C411.292 63.95 417.942 59.9 423.042 54.6C428.242 49.3 432.092 44.1 434.592 39C435.092 38 435.992 37.7 437.292 38.1C438.592 38.5 439.892 39.3 441.192 40.5C442.592 41.7 443.692 43 444.492 44.4C445.392 45.7 445.642 46.8 445.242 47.7Z" fill="#5A52E7"/>
</svg>
